What would happen if we walked in His steps?

It is 2005 in Raymond California, a thriving town that is a cross section of suburban America. Reverend HENRY MAXWELL, Raymond’s local pastor, prepares to take his family on a fishing trip upstate. As they drive to the campgrounds, a tragic car accident takes place, killing Henry’s pregnant wife and young son.

The story moves to present day where we find the town of Raymond has hit on hard times. The once prosperous town is now a shadow of it’s former self. Enter ALEX YORK, an ambitious politician who wants to bring a casino to town to turn the fortunes of Raymond around. He will stop at nothing and has set his sites on the perfect place to build his casino, the grounds of Henry Maxwell’s church. York approaches the wealthy real estate tycoons in town to finance his casino.

Things change when a DRIFTER comes to town. Impassioned by the Drifter’s pleas for the poor and downtrodden, Henry and five influential parishioners set out to make a difference. Each has resolved to conduct his life according to the precepts of Christ, applying His behavior to their own lives. Will Henry and the others, simply by their own sacrifice and example, help change the minds of other townsfolk? Can they get everyone to band together andfight off the temptation of money and the easy path?
 
http://www.imdb.com/title/tt1430131/

Format : AVI
Format/Info : Audio Video Interleave
File size : 702 MiB
Duration : 1h 33mn
Overall bit rate : 1 045 Kbps
Writing application : VirtualDubMod 1.5.10.2 (build 2540/release)
Writing library : VirtualDubMod build 2540/release

Video
ID : 0
Format : MPEG-4 Visual
Format profile : Advanced Simple@L5
Format settings, BVOP : Yes
Format settings, QPel : No
Format settings, GMC : No warppoints
Format settings, Matrix : Default (H.263)
Codec ID : XVID
Codec ID/Hint : XviD
Duration : 1h 33mn
Bit rate : 872 Kbps
Width : 640 pixels
Height : 352 pixels
Display aspect ratio : 16:9
Frame rate : 23.976 fps
Color space : YUV
Chroma subsampling : 4:2:0
Bit depth : 8 bits
Scan type : Progressive
Bits/(Pixel*Frame) : 0.161
Stream size : 586 MiB (83%)
Writing library : XviD 1.2.1 (UTC 2008-12-04)

Audio
ID : 1
Format : MPEG Audio
Format version : Version 1
Format profile : Layer 3
Mode : Joint stereo
Codec ID : 55
Codec ID/Hint : MP3
Duration : 1h 33mn
Bit rate mode : Variable
Bit rate : 160 Kbps
Channel(s) : 2 channels
Sampling rate : 48.0 KHz
Stream size : 108 MiB (15%)
Alignment : Aligned on interleaves
Interleave, duration : 24 ms (0.58 video frame)
Interleave, preload duration : 159 ms
Writing library : LAME3.90.
Encoding settings : -m j -V 4 -q 2 -lowpass 18 --abr 160